<?xml version="1.0" encoding="UTF-8" standalone="no"?> <svg xmlns="http://www.w3.org/2000/svg" viewBox="0 0 48 48"><title>Programming And Data vol.1</title><g id="Layer_10" data-name="Layer 10"><path d="M38.895,36.10938a6.73886,6.73886,0,0,0,.73926-2.98243V8.28125a6.474,6.474,0,0,0-6.32422-6.45117H8.46533a6.14936,6.14936,0,0,0-2.85547.73926,6.55592,6.55592,0,0,0-3.5957,5.71191V33.127a6.38179,6.38179,0,0,0,6.45117,6.4502H33.31006A6.22179,6.22179,0,0,0,38.895,36.10938ZM19.43066,20.665l-5.87353,5.874A.99989.99989,0,0,1,12.14307,25.125l5.1665-5.16693L12.14307,14.792a.99989.99989,0,0,1,1.41406-1.41406l5.87353,5.873A.99962.99962,0,0,1,19.43066,20.665Zm9.20313,6.167H22.51367a1,1,0,0,1,0-2h6.12012a1,1,0,0,1,0,2Z"/><path d="M44.98584,14.543a.99973.99973,0,0,0-1,1V39.83008A4.345,4.345,0,0,1,39.646,44.16992H12.28174a1,1,0,0,0,0,2H39.646a6.347,6.347,0,0,0,6.33984-6.33984V15.543A.99973.99973,0,0,0,44.98584,14.543Z"/></g></svg>