<?xml version="1.0" standalone="no"?>
<!DOCTYPE svg PUBLIC "-//W3C//DTD SVG 20010904//EN"
 "http://www.w3.org/TR/2001/REC-SVG-20010904/DTD/svg10.dtd">
<svg version="1.0" xmlns="http://www.w3.org/2000/svg"
 width="351.000000pt" height="332.000000pt" viewBox="0 0 351.000000 332.000000"
 preserveAspectRatio="xMidYMid meet">

<g transform="translate(0.000000,332.000000) scale(0.100000,-0.100000)"
fill="#000000" stroke="none">
<path d="M1604 3300 c-40 -10 -95 -31 -124 -45 -43 -22 -651 -454 -1229 -874
-130 -94 -174 -139 -214 -221 l-32 -65 -3 -787 c-3 -871 -3 -861 61 -982 42
-80 140 -182 218 -229 35 -21 100 -50 144 -65 79 -26 82 -27 360 -27 268 0
282 1 320 22 50 27 79 57 102 108 15 35 18 82 23 347 l5 306 30 43 c39 56 105
96 180 110 37 7 165 9 350 7 249 -3 296 -6 329 -21 61 -27 104 -64 129 -110
21 -40 22 -55 27 -358 l5 -316 27 -41 c15 -22 49 -54 75 -69 l48 -28 285 0
c283 0 286 1 365 27 105 36 186 85 263 161 70 69 133 181 151 269 8 37 11 297
9 848 l-3 795 -32 65 c-19 38 -54 86 -85 116 -63 61 -1281 930 -1357 969 -126
63 -292 81 -427 45z"/>
</g>
</svg>
