<?xml version="1.0" standalone="no"?>
<!DOCTYPE svg PUBLIC "-//W3C//DTD SVG 20010904//EN"
 "http://www.w3.org/TR/2001/REC-SVG-20010904/DTD/svg10.dtd">
<svg version="1.0" xmlns="http://www.w3.org/2000/svg"
 width="188.000000pt" height="179.000000pt" viewBox="0 0 188.000000 179.000000"
 preserveAspectRatio="xMidYMid meet">

<g transform="translate(0.000000,179.000000) scale(0.100000,-0.100000)"
fill="#000000" stroke="none">
<path d="M892 1765 c-38 -32 -48 -72 -28 -118 16 -39 41 -57 81 -57 14 0 35 5
47 11 27 15 51 74 43 110 -8 35 -58 79 -90 79 -13 0 -37 -11 -53 -25z"/>
<path d="M841 1288 c-35 -150 -67 -282 -71 -292 -5 -15 -24 11 -83 116 -42 75
-80 143 -83 152 -5 12 -13 15 -28 10 -11 -4 -30 -8 -41 -8 -11 -1 -23 -5 -26
-11 -4 -5 -19 -126 -35 -268 -16 -141 -31 -256 -35 -255 -3 2 -59 64 -124 138
-65 74 -121 135 -124 135 -3 -1 -20 -9 -37 -20 l-30 -18 53 -266 c29 -146 58
-290 64 -318 l10 -53 694 0 694 0 10 53 c6 28 35 172 65 319 l53 268 -37 19
-36 19 -120 -139 c-65 -76 -122 -139 -125 -139 -3 0 -18 114 -33 253 -15 138
-30 259 -32 267 -3 10 -19 16 -48 18 l-44 2 -83 -147 c-48 -86 -85 -141 -88
-133 -2 8 -34 139 -71 290 l-65 275 -40 3 -40 3 -64 -273z"/>
<path d="M504 1490 c-32 -13 -64 -59 -64 -92 0 -74 61 -120 125 -94 40 17 55
42 55 91 0 47 -13 71 -50 90 -33 17 -36 17 -66 5z"/>
<path d="M1324 1490 c-65 -26 -83 -109 -35 -162 68 -77 178 -6 150 96 -7 25
-21 44 -42 56 -35 22 -42 23 -73 10z"/>
<path d="M64 1190 c-65 -27 -84 -112 -35 -161 53 -53 131 -33 150 38 22 78
-47 152 -115 123z"/>
<path d="M1733 1185 c-33 -23 -47 -76 -30 -117 25 -59 68 -78 120 -53 63 30
77 107 28 156 -33 33 -82 39 -118 14z"/>
<path d="M250 234 c0 -47 4 -63 16 -68 20 -8 1338 -8 1358 0 12 5 16 21 16 68
l0 61 -695 0 -695 0 0 -61z"/>
<path d="M250 74 c0 -47 4 -63 16 -68 20 -8 1338 -8 1358 0 12 5 16 21 16 68
l0 61 -695 0 -695 0 0 -61z"/>
</g>
</svg>
